Coordinates
version=1
nRows=13
nColumns=40
inDegrees=yes

Units are S.I. units (second, meters, Newtons, ...)
Angles are in degrees.

endheader
time	pelvis_tilt	pelvis_list	pelvis_rotation	pelvis_tx	pelvis_ty	pelvis_tz	hip_flexion_r	hip_adduction_r	hip_rotation_r	knee_angle_r	knee_angle_r_beta	ankle_angle_r	subtalar_angle_r	mtp_angle_r	hip_flexion_l	hip_adduction_l	hip_rotation_l	knee_angle_l	knee_angle_l_beta	ankle_angle_l	subtalar_angle_l	mtp_angle_l	lumbar_extension	lumbar_bending	lumbar_rotation	arm_flex_r	arm_add_r	arm_rot_r	elbow_flex_r	pro_sup_r	wrist_flex_r	wrist_dev_r	arm_flex_l	arm_add_l	arm_rot_l	elbow_flex_l	pro_sup_l	wrist_flex_l	wrist_dev_l
      9.52442857	     -2.12243377	     -4.36951430	      6.43315404	      1.04853383	      0.90432056	      0.53073249	     17.36567411	      6.08278662	     -8.01402490	     33.95581975	     33.95581975	     20.17242488	    -13.18629630	      0.08824555	     30.49554832	    -12.49470851	      7.65089682	     65.26318299	     65.26318299	     14.60572541	    -18.90806223	     13.83686112	    -11.47940555	      4.50897685	      1.81532393	     28.61529460	    -13.29580180	     -5.61547394	     28.45094137	     46.81447765	      0.00000000	      0.00000000	      5.34245630	     -9.00372731	      5.52800904	     27.63563330	     45.98811375	      0.00000000	      0.00000000
      9.54635714	     -1.97654368	     -4.23465550	      7.02628104	      1.04786969	      0.90468334	      0.53092999	     16.83056619	      6.01376858	     -8.23221172	     33.75577797	     33.75577797	     20.38924483	    -13.56461540	      0.35446545	     31.44825848	    -12.44481998	      7.62821241	     62.91679147	     62.91679147	     14.75640690	    -19.00711436	     14.34597664	    -11.48717965	      4.25769433	      2.06348794	     32.34567260	    -13.59063765	     -5.80282166	     30.40788809	     46.76729461	      0.00000000	      0.00000000	      2.65702197	     -8.86512997	      6.07999838	     25.30491261	     45.84795368	      0.00000000	      0.00000000
      9.56828571	     -1.88279929	     -4.04896866	      7.68910852	      1.04709584	      0.90566840	      0.53066254	     16.19431430	      5.84423806	     -8.53793389	     33.25787731	     33.25787731	     20.46171000	    -13.73177285	      0.57689814	     32.13751248	    -12.25414146	      7.45596049	     59.67268345	     59.67268345	     14.63130167	    -19.02367534	     14.59900868	    -11.48193012	      3.97650105	      2.49835349	     36.05956495	    -14.12117291	     -5.91852880	     32.41324055	     46.71502649	      0.00000000	      0.00000000	     -0.01310082	     -8.75398502	      6.48258789	     23.63269960	     45.72559979	      0.00000000	      0.00000000
      9.59021429	     -1.95595014	     -3.91258938	      8.42248610	      1.04617368	      0.90692248	      0.52998705	     15.61470118	      5.65657149	     -9.00834666	     32.52820100	     32.52820100	     20.49221814	    -13.73192345	      0.78845325	     32.66138250	    -12.06361697	      7.07155722	     55.52320410	     55.52320410	     13.37341574	    -18.99092685	     12.51946404	    -11.32862737	      3.73040928	      2.98672625	     39.17204227	    -15.13800638	     -5.45541666	     35.69308171	     46.52174824	      0.00000000	      0.00000000	     -2.57006124	     -8.84743247	      8.29408179	     22.48377999	     45.28530591	      0.00000000	      0.00000000
      9.61214286	     -2.02922626	     -3.67680610	      9.17042709	      1.04517185	      0.90873932	      0.52878515	     14.88496680	      5.33314521	     -9.53416807	     31.55090611	     31.55090611	     20.40156815	    -13.64717837	      0.96496185	     32.87675153	    -11.51523290	      6.75098191	     50.92523553	     50.92523553	     12.55311519	    -18.78933341	     12.89784697	    -11.21820356	      3.42453577	      3.42684008	     42.87977004	    -15.99089877	     -5.53182059	     37.53357900	     46.47532087	      0.00000000	      0.00000000	     -5.09726484	     -8.80685304	      8.53825213	     21.67100073	     45.18349246	      0.00000000	      0.00000000
      9.63407143	     -2.12796395	     -3.47258471	      9.98915086	      1.04416889	      0.91070748	      0.52714377	     14.08069266	      4.99589167	    -10.20762368	     30.40986167	     30.40986167	     20.27433334	    -13.30522132	      1.02790873	     32.80974600	    -10.85345570	      6.48876918	     45.89231913	     45.89231913	     11.20738335	    -18.31753993	     12.61776220	    -11.06435579	      3.21692898	      3.60787693	     46.53013562	    -16.69968708	     -5.47414446	     39.73350757	     46.40477230	      0.00000000	      0.00000000	     -7.71314542	     -8.81806563	      8.82110037	     21.27977822	     45.06060453	      0.00000000	      0.00000000
      9.65600000	     -2.34303559	     -3.38145940	     10.75714350	      1.04324565	      0.91239524	      0.52538430	     13.36057502	      4.75143243	    -10.98674701	     29.14638335	     29.14638335	     19.85240758	    -12.93456680	      0.23623649	     32.46529591	    -10.39467603	      5.91376423	     40.27504145	     40.27504145	      7.56725459	    -17.68006419	      6.92564347	    -10.86868475	      3.03818495	      3.89782636	     49.52783292	    -18.00865140	     -4.05185260	     43.46204334	     46.16598117	      0.00000000	      0.00000000	    -11.03627552	     -9.30853345	     10.51145322	     23.76117416	     44.58754245	      0.00000000	      0.00000000
      9.67792857	     -2.48177019	     -3.28486347	     11.53656812	      1.04242350	      0.91418369	      0.52326440	     12.49071185	      4.52402908	    -11.75453608	     27.79270662	     27.79270662	     19.47958947	    -12.52070878	     -0.37140123	     31.99851045	     -9.75711978	      5.58108948	     35.09016595	     35.09016595	      5.46902522	    -16.12411444	      5.58527485	    -10.67152027	      2.93087977	      4.36762723	     52.80058736	    -19.27852848	     -3.20245654	     45.83443814	     45.94418190	      0.00000000	      0.00000000	    -13.61569235	    -10.32361589	     17.50320905	     25.10145253	     43.54003470	      0.00000000	      0.00000000
      9.69985714	     -2.62061406	     -3.24679343	     12.26056770	      1.04175446	      0.91573189	      0.52101764	     11.66203170	      4.36385185	    -12.53383796	     26.53980634	     26.53980634	     19.34909532	    -11.91253688	     -0.42193535	     31.59090619	     -9.23283099	      5.07044600	     30.55560329	     30.55560329	      4.40701762	    -13.30880022	      6.16806785	    -10.49694958	      2.85462326	      4.56392393	     56.08991377	    -19.97961710	     -3.21351864	     48.14899693	     45.87041890	      0.00000000	      0.00000000	    -16.00070548	    -10.34244715	     17.56052352	     25.98698851	     43.53509616	      0.00000000	      0.00000000
      9.72178571	     -2.75720240	     -3.22883547	     12.90590846	      1.04124118	      0.91700742	      0.51864677	     10.87894293	      4.26862920	    -13.12588083	     25.38622093	     25.38622093	     19.25658268	    -11.54322606	     -0.32288962	     31.15550988	     -8.71357594	      4.57649394	     26.54918502	     26.54918502	      3.42244306	    -10.46792230	      7.04825329	    -10.26912245	      2.77517700	      4.93284667	     59.29215279	    -20.70177241	     -3.30277618	     49.72664652	     45.83462522	      0.00000000	      0.00000000	    -17.81838114	    -10.17535687	     17.64592305	     26.03845035	     43.50201541	      0.00000000	      0.00000000
      9.74371429	     -2.80477319	     -3.29326900	     13.51186161	      1.04099254	      0.91801916	      0.51621678	      9.99715070	      4.26912756	    -13.84366122	     24.22357637	     24.22357637	     19.17479104	    -10.88071593	     -0.40979877	     30.76257002	     -8.35599955	      3.96396465	     23.37417199	     23.37417199	      2.79679544	     -7.31921445	      7.64918802	    -10.18418337	      2.77808016	      5.05891079	     62.32520352	    -21.06865001	     -3.15988497	     51.80606870	     45.76881876	      0.00000000	      0.00000000	    -19.73914116	     -9.96172154	     17.73350554	     26.69319907	     43.46868153	      0.00000000	      0.00000000
      9.76564286	     -2.91746399	     -3.39238953	     14.02063542	      1.04082308	      0.91852852	      0.51372335	      9.32652295	      4.29119246	    -14.42256427	     23.33106635	     23.33106635	     19.15771170	    -10.41375845	     -0.53333408	     30.49425920	     -8.01776028	      3.44292292	     20.87582124	     20.87582124	      2.26541902	     -4.72416282	      8.14032352	     -9.98787973	      2.78395094	      5.20977052	     65.06208435	    -21.32102421	     -2.98790812	     53.79805827	     45.70461407	      0.00000000	      0.00000000	    -21.37466932	     -9.71325204	     17.82770538	     27.39366487	     43.43885507	      0.00000000	      0.00000000
      9.78757143	     -3.04082061	     -3.61054083	     14.49956277	      1.04079338	      0.91848433	      0.51117777	      8.76200932	      4.40994183	    -15.07855142	     22.57014729	     22.57014729	     19.08152986	     -9.87136864	     -1.11380272	     30.52631418	     -7.85271408	      2.84618446	     19.39189755	     19.39189755	      1.95328817	     -2.30267438	      7.92455566	     -9.83416870	      2.88025544	      5.28563186	     67.20380914	    -21.69186610	     -2.29262861	     57.16462769	     45.56871779	      0.00000000	      0.00000000	    -23.31321201	     -9.70686303	     18.06742453	     29.76327596	     43.42261275	      0.00000000	      0.00000000
